<?xml version="1.0" encoding="utf-8"?>
<!DOCTYPE svg PUBLIC "-//W3C//DTD SVG 1.0//EN" "http://www.w3.org/TR/2001/REC-SVG-20010904/DTD/svg10.dtd">
<svg version="1.0" xmlns="http://www.w3.org/2000/svg" width="512px" height="512px" viewBox="0 0 512 512" preserveAspectRatio="xMidYMid meet">
 <g fill="#000000">
  <path d="M47.5 511.3 c-5.4 -0.9 -6.8 -1.6 -10.5 -4.9 -6 -5.5 -7.4 -10.3 -6.7 -23.3 2.3 -39.7 16.1 -75.5 40.7 -105.6 8.4 -10.3 25.3 -26.1 36 -33.7 5.2 -3.7 15.8 -9.9 23.5 -13.8 24 -12 43.7 -17.2 72 -19.1 19.8 -1.3 50.2 -0.5 65.5 1.7 17.7 2.5 35.7 8 40.3 12.2 3.4 3 5.7 8.9 5.7 14.2 0 10.9 -7.9 19 -18.4 19 -2.5 0 -8.5 -1.1 -13.3 -2.5 -17.2 -5 -25.3 -5.7 -60.5 -5.2 -25.5 0.3 -33.8 0.8 -39.5 2.1 -24.8 5.8 -47.1 17.1 -64.8 32.8 -29.4 26.2 -45.8 60.1 -48.1 99.1 -0.3 5.6 -1 11.7 -1.6 13.5 -1.1 3.7 -5.9 9.6 -9.2 11.4 -2.6 1.4 -8.4 2.5 -11.1 2.1z"/>
  <path d="M380.5 511.3 c-5.3 -0.9 -6.7 -1.6 -10.1 -4.6 -7.2 -6.2 -7.4 -7.3 -7.4 -42.9 l0 -31.7 -32.7 -0.3 c-28.3 -0.3 -33.2 -0.5 -35.8 -2 -6.5 -3.6 -11.5 -11.3 -11.5 -17.8 0 -6.5 5 -14.2 11.5 -17.8 2.6 -1.5 7.5 -1.7 35.8 -2 l32.7 -0.3 0 -31.5 c0 -34.2 0.2 -35.9 5.8 -41.7 4 -4.3 7.8 -5.8 13.7 -5.8 5.9 0 9.7 1.5 13.7 5.8 5.6 5.8 5.8 7.5 5.8 41.7 l0 31.5 32.8 0.3 c28.2 0.3 33.1 0.5 35.7 2 6.5 3.6 11.5 11.3 11.5 17.8 0 6.5 -5 14.2 -11.5 17.8 -2.6 1.5 -7.5 1.7 -35.7 2 l-32.8 0.3 0 31.5 c0 26.2 -0.3 32.1 -1.6 35.2 -1.6 4 -5.7 8.7 -8.9 10.5 -2.5 1.3 -8.4 2.4 -11 2z"/>
  <path d="M214 268.9 c-53.2 -3.9 -99.9 -40.4 -116.9 -91.4 -5.2 -15.8 -6.6 -24.3 -6.6 -42.5 0 -18.2 1.4 -26.7 6.6 -42.5 15.5 -46.6 56 -81.4 104.7 -90.1 11.5 -2 34.1 -1.9 45.7 0.1 48.5 8.6 88.9 43.4 104.5 90.3 5.1 15.5 6.5 24.1 6.5 42.2 0 18.2 -1.4 26.7 -6.6 42.5 -19.5 58.5 -75.8 95.8 -137.9 91.4z m35.9 -41.8 c65.1 -19 91.1 -95.2 51 -149.3 -12.3 -16.6 -30.5 -28.9 -51.5 -35 -6.9 -2 -10.2 -2.3 -24.9 -2.3 -14.7 0 -18 0.3 -24.9 2.3 -40.4 11.7 -67.9 45.6 -70.3 86.8 -2.8 47 28.9 88.5 75.7 98.9 9.9 2.2 35.2 1.4 44.9 -1.4z"/>
 </g>
</svg>