<?xml version="1.0" encoding="utf-8"?>
<!DOCTYPE svg PUBLIC "-//W3C//DTD SVG 1.0//EN" "http://www.w3.org/TR/2001/REC-SVG-20010904/DTD/svg10.dtd">
<svg version="1.0" xmlns="http://www.w3.org/2000/svg" width="512px" height="512px" viewBox="0 0 512 512" preserveAspectRatio="xMidYMid meet">
 <g fill="#000000">
  <path d="M235.5 467.9 c-32.8 -3.2 -69.1 -16.1 -96.5 -34.4 -55.8 -37.3 -89.9 -95.5 -95.2 -162.6 -3.9 -50 11.9 -103 43 -143.9 7.8 -10.2 22.9 -25.8 33.7 -34.9 45.5 -38 107.9 -55.5 166.9 -46.6 68 10.2 127.3 53.3 158.6 115 17.2 33.8 25.1 73.4 22.2 110.4 -4.6 59 -31.5 111.1 -76.7 149 -42.6 35.6 -100.2 53.3 -156 48z m32.1 -49.9 c54.2 -4.2 100.4 -32.8 128.3 -79.2 24.9 -41.4 29.6 -96.3 12.1 -140.4 -5.7 -14.2 -18.5 -37.4 -20.7 -37.4 -1 0 -226.3 225.3 -226.3 226.3 0 1.4 14 9.8 25.3 15.2 21.1 10.2 39.9 14.7 67.2 16.3 1.1 0.1 7.5 -0.3 14.1 -0.8z m-29.4 -179.7 c62.1 -62.1 112.8 -113.1 112.8 -113.6 0 -0.4 -3 -2.7 -6.8 -5.1 -40.4 -26.1 -89.6 -32.9 -136.2 -18.9 -50.3 15.1 -92.2 57 -107.3 107.3 -10.5 34.9 -9.3 72.9 3.3 105.8 4.6 12.1 18.6 37.2 20.7 37.2 0.5 0 51.5 -50.7 113.5 -112.7z"/>
 </g>
</svg>