<?xml version="1.0" encoding="utf-8"?>
<!DOCTYPE svg PUBLIC "-//W3C//DTD SVG 1.0//EN" "http://www.w3.org/TR/2001/REC-SVG-20010904/DTD/svg10.dtd">
<svg version="1.0" xmlns="http://www.w3.org/2000/svg" width="512px" height="512px" viewBox="0 0 512 512" preserveAspectRatio="xMidYMid meet">
 <g fill="#000000">
  <path d="M67.8 510.9 c-8.7 -1.3 -13.5 -5 -38.1 -29.7 -19.5 -19.6 -24 -24.7 -26.2 -29.4 -10.4 -22.7 11 -47.7 34.6 -40.4 3 1 6 2 6.7 2.2 0.6 0.3 1.2 -0.1 1.2 -0.9 0 -2.5 8.8 -11.4 13.3 -13.6 2.3 -1.1 5.8 -2.3 7.9 -2.6 3.3 -0.6 3.7 -1.1 4.8 -5.2 3.3 -13.4 10 -19.3 26.8 -23.9 0.6 -0.2 1.2 -1.6 1.2 -3.1 0.1 -6 9 -19.2 14.1 -20.8 3 -1 2.3 -2.7 -4 -8.9 -7.2 -7.2 -10.2 -13.4 -10.2 -21.5 -0.1 -7.7 1.6 -12.9 6 -18.7 7.1 -9.3 21.2 -13.8 31.8 -10.1 l4.1 1.4 14.8 -14.8 14.9 -14.9 -74.6 -74.7 -74.5 -74.8 -10.8 -47 c-5.8 -25.9 -10.7 -48.4 -10.6 -50.1 0 -1.8 0.8 -4.1 1.8 -5.3 3.7 -4.6 4.9 -4.4 55.7 7.2 l48 11 74.8 74.6 74.7 74.6 73.8 -73.7 c40.5 -40.5 74.6 -74.1 75.8 -74.6 3.2 -1.7 93.1 -22.2 97 -22.2 4.7 0 8.4 3.7 8.4 8.4 0 3.9 -20.5 93.8 -22.2 97 -0.5 1.2 -34.1 35.3 -74.6 75.8 l-73.7 73.8 14.8 14.8 14.9 14.9 4.1 -1.4 c10.6 -3.7 24.7 0.8 31.8 10.1 4.4 5.8 6.1 11 6 18.7 0 8.1 -3 14.3 -10.2 21.5 -6.3 6.2 -7 7.9 -4 8.9 5.1 1.6 14 14.8 14.1 20.8 0 1.5 0.6 2.9 1.3 3.1 16.7 4.6 23.4 10.5 26.7 23.8 1.1 4.4 1.3 4.5 6.6 5.7 6.4 1.5 12.5 5.8 17.3 12.2 l3.3 4.5 5.7 -1.9 c24.3 -8.2 46.6 17.6 35.2 40.7 -2.5 5 -7.3 10.3 -26.8 29.8 -19.7 19.6 -24.8 24.1 -29.5 26.3 -22.7 10.4 -47.7 -11 -40.4 -34.6 1 -3 2 -6 2.2 -6.6 0.3 -0.7 -0.1 -1.3 -0.9 -1.3 -2.5 0 -11.4 -8.8 -13.6 -13.3 -1.1 -2.3 -2.3 -5.8 -2.6 -7.9 -0.6 -3.3 -1.1 -3.7 -5.2 -4.8 -13.4 -3.3 -19.3 -10 -23.9 -26.7 -0.2 -0.7 -1.6 -1.3 -3.1 -1.3 -6 -0.1 -19.2 -9 -20.8 -14.1 -1 -3 -2.7 -2.3 -8.9 4 -7.2 7.2 -13.4 10.2 -21.5 10.2 -7.7 0.1 -12.9 -1.6 -18.7 -6 -9.3 -7.1 -13.8 -21.2 -10.1 -31.8 l1.4 -4.1 -14.8 -14.8 -14.9 -14.9 -14.9 14.9 -14.8 14.8 1.4 4.1 c3.7 10.6 -0.8 24.7 -10.1 31.8 -5.8 4.4 -11 6.1 -18.7 6 -8.1 0 -14.3 -3 -21.5 -10.2 -5.3 -5.4 -8.4 -7.2 -8.4 -5 0 0.4 -1.8 2.9 -4 5.4 -4.4 5 -12.8 9.7 -17.2 9.7 -1.6 0 -3 0.6 -3.2 1.3 -4.6 16.7 -10.5 23.4 -23.9 26.7 -4 1.1 -4.6 1.6 -5.1 4.6 -1.6 8 -7.1 16 -14 20.4 l-3.3 2 2 5.7 c7 20.7 -10.7 41.4 -32.5 38.2z m11.7 -21.3 c2.9 -2.9 4 -6.6 3 -10.3 -0.9 -3.8 -46 -48.9 -49.7 -49.8 -3.8 -1 -7.5 0.1 -10.4 3 -1.9 1.9 -2.4 3.5 -2.4 7.2 l0 4.8 23.8 23.7 23.7 23.8 4.8 0 c3.7 0 5.3 -0.5 7.2 -2.4z m388.7 -21.4 l23.8 -23.7 0 -4.8 c0 -5.3 -2.7 -9.1 -7.4 -10.3 -5.5 -1.3 -7.8 0.4 -31.3 23.9 -23.5 23.5 -25.2 25.8 -23.9 31.3 1.2 4.7 5 7.4 10.3 7.4 l4.8 0 23.7 -23.8z m-374.6 -21.6 c2.7 -2.7 3.4 -4.2 3.4 -7.2 0 -3.5 -0.8 -4.6 -10.3 -14.1 -9.5 -9.5 -10.6 -10.3 -14.1 -10.3 -5.4 0 -10.6 5.2 -10.6 10.6 0 3.5 0.8 4.6 10.3 14.1 9.5 9.5 10.6 10.3 14.1 10.3 3 0 4.5 -0.7 7.2 -3.4z m346.1 -6.9 c9.5 -9.5 10.3 -10.6 10.3 -14.1 0 -5.4 -5.2 -10.6 -10.6 -10.6 -3.5 0 -4.6 0.8 -14.1 10.3 -9.5 9.5 -10.3 10.6 -10.3 14.1 0 3 0.7 4.5 3.4 7.2 2.7 2.7 4.2 3.4 7.2 3.4 3.5 0 4.6 -0.8 14.1 -10.3z m-320.2 -19.2 c3.7 -1.8 5.5 -5.1 5.5 -10.2 0 -3.3 -1 -4.7 -9.8 -13.5 -9.5 -9.5 -9.9 -9.8 -14.4 -9.8 -5.4 0 -9.4 3.3 -10.4 8.5 -0.8 4.6 1.1 7.7 10.3 16.6 10.8 10.6 12.5 11.3 18.8 8.4z m281.2 0.4 c3.3 -1.2 17.8 -15.2 20 -19.3 1.9 -3.7 1 -8.6 -2.4 -12 -2 -2 -3.5 -2.6 -7.1 -2.6 -4.5 0 -4.9 0.3 -14.4 9.8 -9.5 9.5 -9.8 9.9 -9.8 14.3 0.1 5 1.4 7.2 5.6 9.4 3.5 1.8 4.4 1.8 8.1 0.4z m-250.4 -30.4 c2.7 -2.8 3.7 -6.1 2.9 -10.2 -0.7 -3.8 -17.7 -20.8 -21.4 -21.5 -7.4 -1.4 -12.8 2.9 -12.8 10 0 4.5 0.3 4.9 9.8 14.4 9.5 9.5 9.9 9.8 14.4 9.8 3.5 0 5.1 -0.6 7.1 -2.5z m56.8 -0.4 c2.3 -2.4 2.9 -3.8 2.9 -7.3 l0 -4.3 -38.3 -38.2 -38.2 -38.3 -4.3 0 c-3.5 0 -4.9 0.6 -7.3 2.9 -2.4 2.4 -2.9 3.8 -2.9 7.8 l0 4.8 37.8 37.7 37.7 37.8 4.8 0 c4 0 5.4 -0.5 7.8 -2.9z m148.1 -34.9 l37.8 -37.7 0 -4.8 c0 -4 -0.5 -5.4 -2.9 -7.8 -2.4 -2.3 -3.8 -2.9 -7.3 -2.9 l-4.3 0 -38.2 38.3 -38.3 38.2 0 4.3 c0 3.5 0.6 4.9 2.9 7.3 2.4 2.4 3.8 2.9 7.8 2.9 l4.8 0 37.7 -37.8z m28 28 c9.5 -9.5 9.8 -9.9 9.8 -14.4 0 -7.1 -5.4 -11.4 -12.7 -10 -1.8 0.3 -6.1 3.8 -11.9 9.6 -5.8 5.8 -9.3 10.1 -9.6 11.9 -1.4 7.3 2.9 12.7 10 12.7 4.5 0 4.9 -0.3 14.4 -9.8z m-154.7 -42.2 l14 -14 -11 -11 -11 -11 -14.2 14.2 -14.3 14.3 10.7 10.7 c5.9 6 11 10.8 11.3 10.8 0.3 0 6.8 -6.3 14.5 -14z m80.8 3.2 l10.7 -10.7 -84.6 -84.5 c-46.5 -46.5 -85.2 -85.7 -86 -87.2 -2.2 -4.2 -1.7 -6.7 2 -10.4 3.5 -3.5 6.2 -4.2 9.9 -2.3 1.2 0.6 40.5 39.3 87.2 86 l85 84.9 11 -11 11 -11 -129 -129 -129.1 -129.1 -27.9 -6.4 c-15.3 -3.6 -28.1 -6.5 -28.4 -6.5 -0.3 0 14.8 15.4 33.6 34.3 22.6 22.6 34.4 35.1 34.8 37 1.6 6.3 -4.8 12.8 -11.1 11.3 -2 -0.5 -13.8 -11.6 -37.1 -34.9 -18.9 -18.8 -34.3 -33.9 -34.3 -33.6 0 0.3 2.9 13.1 6.5 28.4 l6.4 27.9 128.8 128.8 c70.8 70.8 129 128.8 129.3 128.8 0.3 0 5.4 -4.8 11.3 -10.8z m-113.3 -63.7 l-11 -11 -14.2 14.2 -14.3 14.3 11 11 11 11 14.2 -14.2 14.3 -14.3 -11 -11z m203.7 -110.7 l72.3 -72.3 6.4 -27.5 c3.5 -15.1 6.2 -27.7 5.9 -28 -0.2 -0.2 -40.6 39.8 -89.8 89 l-89.5 89.5 10.7 10.7 c5.9 6 11 10.8 11.3 10.8 0.3 0 33 -32.5 72.7 -72.2z m70.3 -142.1 c-0.3 -0.3 -12.9 2.4 -28 5.9 l-27.5 6.4 -72.5 72.5 -72.5 72.5 11 11 11 11 89.4 -89.5 c49.3 -49.2 89.3 -89.6 89.1 -89.8z"/>
  <path d="M123.7 136.9 c-0.9 -0.5 -2.4 -2.4 -3.3 -4 -4 -7.8 4.7 -16.5 12.5 -12.5 3.6 1.9 5.1 4.4 5.1 8.6 0 6.5 -8.6 11.2 -14.3 7.9z"/>
 </g>
</svg>