<?xml version="1.0" encoding="utf-8"?>
<!DOCTYPE svg PUBLIC "-//W3C//DTD SVG 1.0//EN" "http://www.w3.org/TR/2001/REC-SVG-20010904/DTD/svg10.dtd">
<svg version="1.0" xmlns="http://www.w3.org/2000/svg" width="512px" height="512px" viewBox="0 0 512 512" preserveAspectRatio="xMidYMid meet">
 <g fill="#000000">
  <path d="M17.4 505.1 c-10 -4.6 -16.4 -14.1 -16.4 -24.5 0 -5.1 1.7 -11.1 10.7 -37.8 l10.8 -31.7 -1.9 -4.8 c-7.8 -19.5 -11.1 -33.6 -12.6 -52.7 -3.8 -48 17 -97.2 54.7 -129.6 6.9 -5.9 7.2 -6.4 7.7 -11.3 2.2 -23.7 3 -29.6 5.2 -39.5 9 -40.2 28.6 -75.5 58.3 -105.3 32.5 -32.5 69.9 -51.9 116.6 -60.5 11.7 -2.2 46.1 -3 59.2 -1.5 93.2 10.7 169 79.9 187.7 171.3 8.9 43.1 4 88.7 -13.9 129.9 l-3.6 8.4 15.6 45.3 c14.5 42.3 15.5 45.8 15.5 52.6 0 6.1 -0.5 8.3 -3 13.4 -5.8 11.6 -16.7 18.4 -29.3 18.4 -6.7 0 -10.6 -1.2 -52.3 -15.5 l-45.2 -15.6 -11.5 4.9 c-20.4 8.6 -41.9 14 -65.4 16.1 l-13.2 1.3 -3.5 4.5 c-5.8 7.7 -20.2 21.6 -28.9 28.1 -27.9 20.8 -59.3 31.3 -93.7 31.2 -22.5 0 -40 -3.5 -63.3 -12.8 l-4.8 -1.9 -31.7 10.8 c-34.8 11.8 -39.4 12.6 -47.8 8.8z m46.9 -39.6 c16.8 -5.8 32.1 -10.5 34 -10.5 2 0 7.3 1.7 12.1 4 16.6 7.6 30.4 10.8 50.1 11.7 31.5 1.3 61.2 -9 86.8 -30.2 3.7 -3.1 6.5 -5.9 6.3 -6.4 -0.3 -0.4 -3.8 -1.3 -7.8 -2 -62.9 -10.9 -121.7 -55.3 -152.1 -114.8 -8.5 -16.6 -15.8 -37.3 -18.8 -53.3 -1.8 -9.6 -1.9 -9.7 -7 -3.8 -21.1 24.4 -31.9 55.7 -30.5 87.8 0.9 19.4 3.5 30.8 11.2 48.6 2.4 5.6 4.4 11.6 4.4 13.4 0 1.8 -4.7 16.9 -10.5 33.7 -5.8 16.8 -10.5 30.9 -10.5 31.4 0 0.5 0.4 0.9 0.9 0.9 0.5 0 14.6 -4.7 31.4 -10.5z m417.1 -51.3 c0.4 -1.1 -6.3 -22 -15.9 -50.1 -9.1 -26.5 -16.5 -49.2 -16.5 -50.4 0 -1.3 1.8 -6 3.9 -10.4 23.1 -47.7 25.4 -102.3 6.5 -150.4 -24.2 -61.6 -78.4 -105.4 -144.4 -116.5 -13.1 -2.2 -41.6 -2.5 -54.5 -0.5 -56.3 8.4 -104.1 39.8 -133.6 87.7 -28 45.5 -34.4 103.5 -17.3 155.3 25.1 75.6 96.3 127.1 175.8 127.2 29.5 0.1 53.5 -5.2 80.5 -17.6 7.5 -3.4 11.7 -4.8 14.5 -4.7 2.5 0.1 22.7 6.6 50.1 16.1 25.3 8.8 47 16 48.2 16 1.3 0.1 2.4 -0.7 2.7 -1.7z"/>
  <path d="M189 293.1 c-10.3 -5.4 -10.8 -20.3 -0.8 -25.8 3.1 -1.7 7.4 -1.8 63.5 -1.8 l60.1 0 3.9 3.1 c7 5.7 8 14 2.6 20.5 -5.1 6 -3.8 5.9 -67.5 5.9 -54.9 0 -58.5 -0.1 -61.8 -1.9z"/>
  <path d="M188.2 230 c-5.2 -3.2 -7.4 -7.6 -6.9 -13.8 0.3 -4.6 0.9 -5.9 4.1 -9 l3.6 -3.7 95.6 -0.3 c106.4 -0.3 100.1 -0.7 104.6 6.5 4.3 7.1 2 16.1 -5.2 20.2 -3.8 2.1 -4.2 2.1 -98.1 2.1 -92.4 0 -94.5 0 -97.7 -2z"/>
  <path d="M192.4 169.1 c-13.4 -3.3 -15.6 -21.2 -3.4 -27.4 3.3 -1.6 9.6 -1.7 98.2 -1.5 93.8 0.3 94.7 0.3 97.4 2.4 4.8 3.5 6.7 7 6.7 11.7 0 5.5 -2.7 10.5 -7.3 13.2 -3.4 2 -4.9 2 -96 2.2 -50.9 0 -93.9 -0.2 -95.6 -0.6z"/>
 </g>
</svg>