<?xml version="1.0" encoding="utf-8"?>
<!DOCTYPE svg PUBLIC "-//W3C//DTD SVG 1.0//EN" "http://www.w3.org/TR/2001/REC-SVG-20010904/DTD/svg10.dtd">
<svg version="1.0" xmlns="http://www.w3.org/2000/svg" width="512px" height="512px" viewBox="0 0 512 512" preserveAspectRatio="xMidYMid meet">
 <g fill="#000000">
  <path d="M73.9 510.8 c-37.7 -3.2 -69.4 -34.8 -72.7 -72.6 -1.7 -20.4 2.4 -36.9 13.6 -54.2 2.1 -3.2 28.6 -30.6 64.6 -66.7 l61 -61.3 -61 -61.2 c-36 -36.2 -62.5 -63.6 -64.6 -66.8 -11.2 -17.3 -15.3 -33.8 -13.6 -54.2 2.7 -31.5 24.9 -58.9 56.3 -69.5 7.3 -2.5 9.4 -2.7 24 -2.7 17.3 -0.1 24.4 1.3 36 7.1 11.8 6 17.9 11.5 77.3 70.7 l61.2 61 61.3 -61 c59.3 -59.2 65.4 -64.7 77.2 -70.7 11.6 -5.8 18.7 -7.2 36 -7.1 14.6 0 16.7 0.2 24 2.7 25.4 8.6 44.6 27.8 53.2 53.2 2.5 7.3 2.7 9.4 2.7 24 0.1 17.3 -1.3 24.4 -7.1 36 -6 11.8 -11.5 17.9 -70.7 77.3 l-61 61.2 61 61.3 c59.2 59.3 64.7 65.4 70.7 77.2 5.8 11.6 7.2 18.7 7.1 36 0 14.6 -0.2 16.7 -2.7 24 -10.6 31.4 -38 53.6 -69.5 56.3 -20.4 1.7 -36.9 -2.4 -54.2 -13.6 -3.2 -2.1 -30.6 -28.6 -66.7 -64.6 l-61.3 -61 -61.2 61 c-36.2 36 -63.6 62.5 -66.8 64.6 -17.2 11.1 -33.8 15.3 -54.1 13.6z m20.2 -41.2 c2.6 -0.8 6.6 -2.6 9 -4.1 2.4 -1.5 37.8 -36.1 78.7 -76.8 l74.2 -74.2 74.3 74.2 c40.8 40.7 76.2 75.3 78.6 76.8 6.2 3.8 12.5 5.5 21.1 5.5 9.1 0 15.2 -1.7 22.2 -6.3 12.5 -8.1 18.8 -19.7 18.8 -34.7 0 -8.6 -1.7 -14.9 -5.5 -21.1 -1.5 -2.4 -36.1 -37.8 -76.8 -78.6 l-74.2 -74.3 74.2 -74.2 c40.7 -40.9 75.3 -76.3 76.8 -78.7 3.8 -6.2 5.5 -12.5 5.5 -21.1 0 -15 -6.3 -26.6 -18.8 -34.7 -7 -4.6 -13.1 -6.3 -22.2 -6.3 -8.6 0 -14.9 1.7 -21.1 5.5 -2.4 1.5 -37.8 36.1 -78.6 76.8 l-74.3 74.2 -74.2 -74.2 c-40.9 -40.7 -76.3 -75.3 -78.7 -76.8 -6.2 -3.8 -12.5 -5.5 -21.1 -5.5 -15 0 -26.6 6.3 -34.7 18.8 -4.6 7 -6.3 13.1 -6.3 22.2 0 8.6 1.7 14.9 5.5 21.1 1.5 2.4 36.1 37.8 76.8 78.7 l74.2 74.2 -74.2 74.3 c-40.7 40.8 -75.3 76.2 -76.8 78.6 -3.8 6.2 -5.5 12.5 -5.5 21.1 0 11.3 3.5 20.3 10.9 28.4 3.5 3.9 12.4 9.5 17.4 11.1 5.7 1.8 19.1 1.8 24.8 0.1z"/>
 </g>
</svg>